<svg version="1.0" xmlns="http://www.w3.org/2000/svg" width="232.000000pt" height="230.000000pt"
     viewBox="0 0 232.000000 230.000000" preserveAspectRatio="xMidYMid meet">
    <g transform="translate(0.000000,230.000000) scale(0.050000,-0.050000)" fill="#ff640a" stroke="none">
        <path d="M3300 4426 c-1259 -132 -2452 -878 -2974 -1859 -841 -1583 915 -2977 2814 -2235 72 28 157 62 189 75 127 50 489 232 532 266 233 191 256 214 359 347 38 50 74 95 80 100 170 162 173 259 5 153 -271 -171 -1235 -613 -1546 -709 -1028 -317 -2115 67 -2381 841 -311 905 363 1900 1748 2583 652 322 1860 454 2282 250 86 -41 99 -40 81 8 -48 125 -731 228 -1189 180z"/>
        <path d="M4018 3755 c-1 -3 -4 -23 -6 -45 -25 -205 -31 -211 -262 -251 -83 -15 -130 -33 -130 -49 0 -36 103 -56 200 -40 89 15 93 7 51 -94 -31 -74 -14 -129 35 -110 16 6 41 46 55 88 35 110 47 118 163 123 141 6 176 18 176 64 0 53 -72 85 -160 71 -92 -14 -101 -5 -78 75 24 83 -18 245 -44 168z"/>
        <path d="M2646 3292 c-98 -131 -123 -171 -427 -662 -387 -626 -453 -707 -691 -841 -135 -75 -244 -185 -143 -143 14 6 59 25 100 42 95 41 95 20 -1 -90 -42 -48 -127 -155 -187 -238 -61 -82 -130 -167 -154 -188 -53 -47 -56 -92 -5 -92 48 0 235 151 313 253 32 42 84 104 116 137 77 81 300 331 313 351 37 57 574 284 555 234 -143 -378 -107 -720 75 -720 134 0 168 83 259 632 26 163 51 298 55 300 245 116 476 279 476 337 0 29 -140 6 -295 -48 -151 -52 -149 -54 -122 105 38 225 33 641 -8 705 -61 92 -120 73 -229 -74z m-16 -484 c-18 -65 -52 -194 -76 -288 l-44 -169 -175 -100 c-96 -54 -175 -111 -175 -125 0 -14 -9 -26 -20 -26 -38 0 -20 41 77 175 94 130 292 457 371 611 56 109 81 63 42 -78z m50 -612 c0 -19 -12 -41 -27 -50 -15 -9 -33 -29 -39 -46 -14 -33 3 112 19 159 12 38 46 -9 47 -63z"/>
    </g>
</svg>